<mxfile host="Electron" agent="Mozilla/5.0 (X11; Linux x86_64) AppleWebKit/537.36 (KHTML, like Gecko) draw.io/26.0.9 Chrome/128.0.6613.186 Electron/32.2.5 Safari/537.36" version="26.0.9">
  <diagram name="Page-1" id="jGmzLHOHINst9ObwLRdF">
    <mxGraphModel dx="986" dy="594" grid="1" gridSize="10" guides="1" tooltips="1" connect="1" arrows="1" fold="1" page="1" pageScale="1" pageWidth="850" pageHeight="1100" math="0" shadow="0">
      <root>
        <mxCell id="0" />
        <mxCell id="1" parent="0" />
        <mxCell id="KNkXbPIZbRlJdMqvXKi_-1" value="&lt;b&gt;&lt;font style=&quot;font-size: 14px;&quot;&gt;runner/container manager&lt;/font&gt;&lt;/b&gt;" style="rounded=0;whiteSpace=wrap;html=1;" vertex="1" parent="1">
          <mxGeometry x="400" y="330" width="150" height="70" as="geometry" />
        </mxCell>
        <mxCell id="KNkXbPIZbRlJdMqvXKi_-2" value="&lt;b&gt;&lt;font style=&quot;font-size: 14px;&quot;&gt;container &lt;br&gt;Jupyter&lt;/font&gt;&lt;/b&gt;" style="rounded=1;whiteSpace=wrap;html=1;fillColor=#fff2cc;strokeColor=#d6b656;" vertex="1" parent="1">
          <mxGeometry x="275" y="500" width="120" height="60" as="geometry" />
        </mxCell>
        <mxCell id="KNkXbPIZbRlJdMqvXKi_-5" value="&lt;b&gt;&lt;font style=&quot;font-size: 14px;&quot;&gt;container R&lt;/font&gt;&lt;/b&gt;" style="rounded=1;whiteSpace=wrap;html=1;fillColor=#dae8fc;strokeColor=#6c8ebf;" vertex="1" parent="1">
          <mxGeometry x="415" y="500" width="120" height="60" as="geometry" />
        </mxCell>
        <mxCell id="KNkXbPIZbRlJdMqvXKi_-6" value="&lt;b&gt;&lt;font style=&quot;font-size: 14px;&quot;&gt;container&lt;br&gt;Generic&lt;/font&gt;&lt;/b&gt;" style="rounded=1;whiteSpace=wrap;html=1;fillColor=#f5f5f5;fontColor=#333333;strokeColor=#666666;" vertex="1" parent="1">
          <mxGeometry x="555" y="500" width="120" height="60" as="geometry" />
        </mxCell>
        <mxCell id="KNkXbPIZbRlJdMqvXKi_-7" value="" style="endArrow=classic;html=1;rounded=0;strokeWidth=2;" edge="1" parent="1" source="KNkXbPIZbRlJdMqvXKi_-1" target="KNkXbPIZbRlJdMqvXKi_-2">
          <mxGeometry width="50" height="50" relative="1" as="geometry">
            <mxPoint x="400" y="470" as="sourcePoint" />
            <mxPoint x="450" y="420" as="targetPoint" />
            <Array as="points">
              <mxPoint x="475" y="460" />
              <mxPoint x="335" y="460" />
            </Array>
          </mxGeometry>
        </mxCell>
        <mxCell id="KNkXbPIZbRlJdMqvXKi_-8" value="" style="endArrow=classic;html=1;rounded=0;strokeWidth=2;" edge="1" parent="1" source="KNkXbPIZbRlJdMqvXKi_-1" target="KNkXbPIZbRlJdMqvXKi_-5">
          <mxGeometry width="50" height="50" relative="1" as="geometry">
            <mxPoint x="485" y="410" as="sourcePoint" />
            <mxPoint x="405" y="510" as="targetPoint" />
            <Array as="points" />
          </mxGeometry>
        </mxCell>
        <mxCell id="KNkXbPIZbRlJdMqvXKi_-9" value="" style="endArrow=classic;html=1;rounded=0;strokeWidth=2;" edge="1" parent="1" source="KNkXbPIZbRlJdMqvXKi_-1" target="KNkXbPIZbRlJdMqvXKi_-6">
          <mxGeometry width="50" height="50" relative="1" as="geometry">
            <mxPoint x="485" y="410" as="sourcePoint" />
            <mxPoint x="485" y="510" as="targetPoint" />
            <Array as="points">
              <mxPoint x="475" y="460" />
              <mxPoint x="615" y="460" />
            </Array>
          </mxGeometry>
        </mxCell>
        <mxCell id="KNkXbPIZbRlJdMqvXKi_-10" value="send input file (stdin/docker cp/volume attach)" style="edgeLabel;html=1;align=center;verticalAlign=middle;resizable=0;points=[];" vertex="1" connectable="0" parent="KNkXbPIZbRlJdMqvXKi_-9">
          <mxGeometry x="-0.7333" y="2" relative="1" as="geometry">
            <mxPoint as="offset" />
          </mxGeometry>
        </mxCell>
        <mxCell id="KNkXbPIZbRlJdMqvXKi_-11" value="&lt;b&gt;&lt;font style=&quot;font-size: 14px;&quot;&gt;result collector&lt;br&gt;Jupyter&lt;/font&gt;&lt;/b&gt;" style="rounded=0;whiteSpace=wrap;html=1;fillColor=#fff2cc;strokeColor=#d6b656;" vertex="1" parent="1">
          <mxGeometry x="275" y="640" width="120" height="70" as="geometry" />
        </mxCell>
        <mxCell id="KNkXbPIZbRlJdMqvXKi_-12" value="&lt;b&gt;&lt;font style=&quot;font-size: 14px;&quot;&gt;result collector&lt;br&gt;R&lt;/font&gt;&lt;/b&gt;" style="rounded=0;whiteSpace=wrap;html=1;fillColor=#dae8fc;strokeColor=#6c8ebf;" vertex="1" parent="1">
          <mxGeometry x="417.5" y="640" width="115" height="70" as="geometry" />
        </mxCell>
        <mxCell id="KNkXbPIZbRlJdMqvXKi_-13" value="" style="endArrow=classic;html=1;rounded=0;strokeWidth=2;" edge="1" parent="1" source="KNkXbPIZbRlJdMqvXKi_-5" target="KNkXbPIZbRlJdMqvXKi_-12">
          <mxGeometry width="50" height="50" relative="1" as="geometry">
            <mxPoint x="485" y="410" as="sourcePoint" />
            <mxPoint x="485" y="510" as="targetPoint" />
            <Array as="points" />
          </mxGeometry>
        </mxCell>
        <mxCell id="KNkXbPIZbRlJdMqvXKi_-17" value="send R output" style="edgeLabel;html=1;align=center;verticalAlign=middle;resizable=0;points=[];" vertex="1" connectable="0" parent="KNkXbPIZbRlJdMqvXKi_-13">
          <mxGeometry x="-0.1223" y="-1" relative="1" as="geometry">
            <mxPoint as="offset" />
          </mxGeometry>
        </mxCell>
        <mxCell id="KNkXbPIZbRlJdMqvXKi_-14" value="" style="endArrow=classic;html=1;rounded=0;strokeWidth=2;" edge="1" parent="1" source="KNkXbPIZbRlJdMqvXKi_-6" target="KNkXbPIZbRlJdMqvXKi_-19">
          <mxGeometry width="50" height="50" relative="1" as="geometry">
            <mxPoint x="499" y="570" as="sourcePoint" />
            <mxPoint x="720" y="610" as="targetPoint" />
            <Array as="points" />
          </mxGeometry>
        </mxCell>
        <mxCell id="KNkXbPIZbRlJdMqvXKi_-15" value="" style="endArrow=classic;html=1;rounded=0;strokeWidth=2;" edge="1" parent="1" source="KNkXbPIZbRlJdMqvXKi_-2" target="KNkXbPIZbRlJdMqvXKi_-11">
          <mxGeometry width="50" height="50" relative="1" as="geometry">
            <mxPoint x="611" y="570" as="sourcePoint" />
            <mxPoint x="571" y="660" as="targetPoint" />
            <Array as="points" />
          </mxGeometry>
        </mxCell>
        <mxCell id="KNkXbPIZbRlJdMqvXKi_-16" value="send Jupyter output" style="edgeLabel;html=1;align=center;verticalAlign=middle;resizable=0;points=[];" vertex="1" connectable="0" parent="KNkXbPIZbRlJdMqvXKi_-15">
          <mxGeometry x="-0.1464" relative="1" as="geometry">
            <mxPoint as="offset" />
          </mxGeometry>
        </mxCell>
        <mxCell id="KNkXbPIZbRlJdMqvXKi_-18" value="send output to file/stdout/volume" style="edgeLabel;html=1;align=center;verticalAlign=middle;resizable=0;points=[];" vertex="1" connectable="0" parent="1">
          <mxGeometry x="614.9997499542667" y="599.9990679489761" as="geometry" />
        </mxCell>
        <mxCell id="KNkXbPIZbRlJdMqvXKi_-19" value="&lt;b&gt;&lt;font style=&quot;font-size: 14px;&quot;&gt;result collector&lt;br&gt;Generic&lt;/font&gt;&lt;/b&gt;" style="rounded=0;whiteSpace=wrap;html=1;fillColor=#f5f5f5;fontColor=#333333;strokeColor=#666666;" vertex="1" parent="1">
          <mxGeometry x="557.5" y="640" width="115" height="70" as="geometry" />
        </mxCell>
        <mxCell id="KNkXbPIZbRlJdMqvXKi_-20" value="&lt;b&gt;&lt;font style=&quot;font-size: 14px;&quot;&gt;result visualizer&lt;/font&gt;&lt;/b&gt;" style="rounded=0;whiteSpace=wrap;html=1;" vertex="1" parent="1">
          <mxGeometry x="407.5" y="800" width="135" height="60" as="geometry" />
        </mxCell>
        <mxCell id="KNkXbPIZbRlJdMqvXKi_-21" value="" style="endArrow=classic;html=1;rounded=0;strokeWidth=2;" edge="1" parent="1" source="KNkXbPIZbRlJdMqvXKi_-11" target="KNkXbPIZbRlJdMqvXKi_-20">
          <mxGeometry width="50" height="50" relative="1" as="geometry">
            <mxPoint x="345" y="570" as="sourcePoint" />
            <mxPoint x="345" y="650" as="targetPoint" />
            <Array as="points">
              <mxPoint x="335" y="760" />
              <mxPoint x="475" y="760" />
            </Array>
          </mxGeometry>
        </mxCell>
        <mxCell id="KNkXbPIZbRlJdMqvXKi_-23" value="" style="endArrow=classic;html=1;rounded=0;strokeWidth=2;" edge="1" parent="1" source="KNkXbPIZbRlJdMqvXKi_-12" target="KNkXbPIZbRlJdMqvXKi_-20">
          <mxGeometry width="50" height="50" relative="1" as="geometry">
            <mxPoint x="377" y="720" as="sourcePoint" />
            <mxPoint x="458" y="810" as="targetPoint" />
            <Array as="points" />
          </mxGeometry>
        </mxCell>
        <mxCell id="KNkXbPIZbRlJdMqvXKi_-25" value="send uniform? results" style="edgeLabel;html=1;align=center;verticalAlign=middle;resizable=0;points=[];" vertex="1" connectable="0" parent="KNkXbPIZbRlJdMqvXKi_-23">
          <mxGeometry x="-0.3726" relative="1" as="geometry">
            <mxPoint as="offset" />
          </mxGeometry>
        </mxCell>
        <mxCell id="KNkXbPIZbRlJdMqvXKi_-24" value="" style="endArrow=classic;html=1;rounded=0;strokeWidth=2;" edge="1" parent="1" source="KNkXbPIZbRlJdMqvXKi_-19" target="KNkXbPIZbRlJdMqvXKi_-20">
          <mxGeometry width="50" height="50" relative="1" as="geometry">
            <mxPoint x="485" y="720" as="sourcePoint" />
            <mxPoint x="485" y="810" as="targetPoint" />
            <Array as="points">
              <mxPoint x="615" y="760" />
              <mxPoint x="475" y="760" />
            </Array>
          </mxGeometry>
        </mxCell>
      </root>
    </mxGraphModel>
  </diagram>
</mxfile>
